<?xml version="1.0" encoding="utf-8"?>
<!-- Generator: Adobe Illustrator 18.1.1, SVG Export Plug-In . SVG Version: 6.00 Build 0)  -->
<svg version="1.1" id="Layer_1" xmlns="http://www.w3.org/2000/svg" xmlns:xlink="http://www.w3.org/1999/xlink" x="0px" y="0px"
	 viewBox="0 0 80 80" enable-background="new 0 0 80 80" xml:space="preserve">
<rect x="79" y="79" opacity="0.21" width="1" height="1"/>
<rect x="78" y="78" opacity="0.21" width="1" height="1"/>
<rect x="78" y="1" opacity="0.21" width="1" height="1"/>
<rect x="79" opacity="0.21" width="1" height="1"/>
<rect x="77" y="77" opacity="0.21" width="1" height="1"/>
<rect x="77" y="2" opacity="0.21" width="1" height="1"/>
<rect x="76" y="76" opacity="0.21" width="1" height="1"/>
<rect x="76" y="3" opacity="0.21" width="1" height="1"/>
<rect x="75" y="75" opacity="0.21" width="1" height="1"/>
<rect x="75" y="4" opacity="0.21" width="1" height="1"/>
<rect x="74" y="74" opacity="0.21" width="1" height="1"/>
<rect x="74" y="5" opacity="0.21" width="1" height="1"/>
<rect x="73" y="73" opacity="0.21" width="1" height="1"/>
<rect x="73" y="6" opacity="0.21" width="1" height="1"/>
<rect x="72" y="72" opacity="0.21" width="1" height="1"/>
<rect x="72" y="7" opacity="0.21" width="1" height="1"/>
<rect x="71" y="71" opacity="0.21" width="1" height="1"/>
<rect x="71" y="8" opacity="0.21" width="1" height="1"/>
<rect x="70" y="70" opacity="0.21" width="1" height="1"/>
<rect x="70" y="9" opacity="0.21" width="1" height="1"/>
<rect x="69" y="69" opacity="0.21" width="1" height="1"/>
<rect x="69" y="10" opacity="0.21" width="1" height="1"/>
<rect x="68" y="68" opacity="0.21" width="1" height="1"/>
<rect x="68" y="11" opacity="0.21" width="1" height="1"/>
<rect x="67" y="67" opacity="0.21" width="1" height="1"/>
<rect x="67" y="12" opacity="0.21" width="1" height="1"/>
<rect x="66" y="66" opacity="0.21" width="1" height="1"/>
<rect x="66" y="13" opacity="0.21" width="1" height="1"/>
<rect x="65" y="65" opacity="0.21" width="1" height="1"/>
<rect x="65" y="14" opacity="0.21" width="1" height="1"/>
<rect x="64" y="64" opacity="0.21" width="1" height="1"/>
<rect x="64" y="15" opacity="0.21" width="1" height="1"/>
<rect x="63" y="63" opacity="0.21" width="1" height="1"/>
<rect x="63" y="16" opacity="0.21" width="1" height="1"/>
<rect x="62" y="62" opacity="0.21" width="1" height="1"/>
<rect x="62" y="17" opacity="0.21" width="1" height="1"/>
<rect x="61" y="61" opacity="0.21" width="1" height="1"/>
<rect x="61" y="18" opacity="0.21" width="1" height="1"/>
<rect x="60" y="60" opacity="0.21" width="1" height="1"/>
<rect x="60" y="19" opacity="0.21" width="1" height="1"/>
<rect x="59" y="59" opacity="0.21" width="1" height="1"/>
<rect x="59" y="20" opacity="0.21" width="1" height="1"/>
<rect x="58" y="58" opacity="0.21" width="1" height="1"/>
<rect x="58" y="21" opacity="0.21" width="1" height="1"/>
<rect x="57" y="57" opacity="0.21" width="1" height="1"/>
<rect x="57" y="22" opacity="0.21" width="1" height="1"/>
<rect x="56" y="56" opacity="0.21" width="1" height="1"/>
<rect x="56" y="23" opacity="0.21" width="1" height="1"/>
<rect x="55" y="55" opacity="0.21" width="1" height="1"/>
<rect x="55" y="24" opacity="0.21" width="1" height="1"/>
<rect x="54" y="54" opacity="0.21" width="1" height="1"/>
<rect x="54" y="25" opacity="0.21" width="1" height="1"/>
<rect x="53" y="53" opacity="0.21" width="1" height="1"/>
<rect x="53" y="26" opacity="0.21" width="1" height="1"/>
<rect x="52" y="52" opacity="0.21" width="1" height="1"/>
<rect x="52" y="27" opacity="0.21" width="1" height="1"/>
<rect x="51" y="51" opacity="0.21" width="1" height="1"/>
<rect x="51" y="28" opacity="0.21" width="1" height="1"/>
<rect x="50" y="50" opacity="0.21" width="1" height="1"/>
<rect x="50" y="29" opacity="0.21" width="1" height="1"/>
<rect x="49" y="49" opacity="0.21" width="1" height="1"/>
<rect x="49" y="30" opacity="0.21" width="1" height="1"/>
<rect x="48" y="48" opacity="0.21" width="1" height="1"/>
<rect x="48" y="31" opacity="0.21" width="1" height="1"/>
<rect x="47" y="47" opacity="0.21" width="1" height="1"/>
<rect x="47" y="32" opacity="0.21" width="1" height="1"/>
<rect x="46" y="46" opacity="0.21" width="1" height="1"/>
<rect x="46" y="33" opacity="0.21" width="1" height="1"/>
<rect x="45" y="45" opacity="0.21" width="1" height="1"/>
<rect x="45" y="34" opacity="0.21" width="1" height="1"/>
<rect x="44" y="44" opacity="0.21" width="1" height="1"/>
<rect x="44" y="35" opacity="0.21" width="1" height="1"/>
<rect x="43" y="43" opacity="0.21" width="1" height="1"/>
<rect x="43" y="36" opacity="0.21" width="1" height="1"/>
<rect x="42" y="42" opacity="0.21" width="1" height="1"/>
<rect x="42" y="37" opacity="0.21" width="1" height="1"/>
<rect x="41" y="41" opacity="0.21" width="1" height="1"/>
<rect x="41" y="38" opacity="0.21" width="1" height="1"/>
<polygon opacity="0.21" points="41,39 40,39 39,39 39,40 39,41 40,41 41,41 41,40 "/>
<rect x="38" y="41" opacity="0.21" width="1" height="1"/>
<rect x="38" y="38" opacity="0.21" width="1" height="1"/>
<rect x="37" y="42" opacity="0.21" width="1" height="1"/>
<rect x="37" y="37" opacity="0.21" width="1" height="1"/>
<rect x="36" y="43" opacity="0.21" width="1" height="1"/>
<rect x="36" y="36" opacity="0.21" width="1" height="1"/>
<rect x="35" y="44" opacity="0.21" width="1" height="1"/>
<rect x="35" y="35" opacity="0.21" width="1" height="1"/>
<rect x="34" y="45" opacity="0.21" width="1" height="1"/>
<rect x="34" y="34" opacity="0.21" width="1" height="1"/>
<rect x="33" y="46" opacity="0.21" width="1" height="1"/>
<rect x="33" y="33" opacity="0.21" width="1" height="1"/>
<rect x="32" y="47" opacity="0.21" width="1" height="1"/>
<rect x="32" y="32" opacity="0.21" width="1" height="1"/>
<rect x="31" y="48" opacity="0.21" width="1" height="1"/>
<rect x="31" y="31" opacity="0.21" width="1" height="1"/>
<rect x="30" y="49" opacity="0.21" width="1" height="1"/>
<rect x="30" y="30" opacity="0.21" width="1" height="1"/>
<rect x="29" y="50" opacity="0.21" width="1" height="1"/>
<rect x="29" y="29" opacity="0.21" width="1" height="1"/>
<rect x="28" y="51" opacity="0.21" width="1" height="1"/>
<rect x="28" y="28" opacity="0.21" width="1" height="1"/>
<rect x="27" y="52" opacity="0.21" width="1" height="1"/>
<rect x="27" y="27" opacity="0.21" width="1" height="1"/>
<rect x="26" y="53" opacity="0.21" width="1" height="1"/>
<rect x="26" y="26" opacity="0.21" width="1" height="1"/>
<rect x="25" y="54" opacity="0.21" width="1" height="1"/>
<rect x="25" y="25" opacity="0.21" width="1" height="1"/>
<rect x="24" y="55" opacity="0.21" width="1" height="1"/>
<rect x="24" y="24" opacity="0.21" width="1" height="1"/>
<rect x="23" y="56" opacity="0.21" width="1" height="1"/>
<rect x="23" y="23" opacity="0.21" width="1" height="1"/>
<rect x="22" y="57" opacity="0.21" width="1" height="1"/>
<rect x="22" y="22" opacity="0.21" width="1" height="1"/>
<rect x="21" y="58" opacity="0.21" width="1" height="1"/>
<rect x="21" y="21" opacity="0.21" width="1" height="1"/>
<rect x="20" y="59" opacity="0.21" width="1" height="1"/>
<rect x="20" y="20" opacity="0.21" width="1" height="1"/>
<rect x="19" y="60" opacity="0.21" width="1" height="1"/>
<rect x="19" y="19" opacity="0.21" width="1" height="1"/>
<rect x="18" y="61" opacity="0.21" width="1" height="1"/>
<rect x="18" y="18" opacity="0.21" width="1" height="1"/>
<rect x="17" y="62" opacity="0.21" width="1" height="1"/>
<rect x="17" y="17" opacity="0.21" width="1" height="1"/>
<rect x="16" y="63" opacity="0.21" width="1" height="1"/>
<rect x="16" y="16" opacity="0.21" width="1" height="1"/>
<rect x="15" y="64" opacity="0.21" width="1" height="1"/>
<rect x="15" y="15" opacity="0.21" width="1" height="1"/>
<rect x="14" y="65" opacity="0.21" width="1" height="1"/>
<rect x="14" y="14" opacity="0.21" width="1" height="1"/>
<rect x="13" y="66" opacity="0.21" width="1" height="1"/>
<rect x="13" y="13" opacity="0.21" width="1" height="1"/>
<rect x="12" y="67" opacity="0.21" width="1" height="1"/>
<rect x="12" y="12" opacity="0.21" width="1" height="1"/>
<rect x="11" y="68" opacity="0.21" width="1" height="1"/>
<rect x="11" y="11" opacity="0.21" width="1" height="1"/>
<rect x="10" y="69" opacity="0.21" width="1" height="1"/>
<rect x="10" y="10" opacity="0.21" width="1" height="1"/>
<rect x="9" y="70" opacity="0.21" width="1" height="1"/>
<rect x="9" y="9" opacity="0.21" width="1" height="1"/>
<rect x="8" y="71" opacity="0.21" width="1" height="1"/>
<rect x="8" y="8" opacity="0.21" width="1" height="1"/>
<rect x="7" y="72" opacity="0.21" width="1" height="1"/>
<rect x="7" y="7" opacity="0.21" width="1" height="1"/>
<rect x="6" y="73" opacity="0.21" width="1" height="1"/>
<rect x="6" y="6" opacity="0.21" width="1" height="1"/>
<rect x="5" y="74" opacity="0.21" width="1" height="1"/>
<rect x="5" y="5" opacity="0.21" width="1" height="1"/>
<rect x="4" y="75" opacity="0.21" width="1" height="1"/>
<rect x="4" y="4" opacity="0.21" width="1" height="1"/>
<rect x="3" y="76" opacity="0.21" width="1" height="1"/>
<rect x="3" y="3" opacity="0.21" width="1" height="1"/>
<rect x="2" y="77" opacity="0.21" width="1" height="1"/>
<rect x="2" y="2" opacity="0.21" width="1" height="1"/>
<rect x="1" y="78" opacity="0.21" width="1" height="1"/>
<rect x="1" y="1" opacity="0.21" width="1" height="1"/>
<rect opacity="0.21" width="1" height="1"/>
<rect y="79" opacity="0.21" width="1" height="1"/>
</svg>
