<?xml version="1.0" encoding="utf-8"?>
<!-- Generator: Adobe Illustrator 18.1.1, SVG Export Plug-In . SVG Version: 6.00 Build 0)  -->
<svg version="1.1" id="Layer_1" xmlns="http://www.w3.org/2000/svg" xmlns:xlink="http://www.w3.org/1999/xlink" x="0px" y="0px"
	 viewBox="0 0 16 16" enable-background="new 0 0 16 16" xml:space="preserve">
<g>
	<polygon fill="#104257" points="3,14 3,15 3,16 4,16 5,16 6,16 7,16 8,16 9,16 10,16 11,16 12,16 13,16 13,15 13,14 13,13 13,12 
		13,11 13,10 13,9 13,8 13,7 13,6 13,5 13,4 13,3 12,3 11,3 10,3 9,3 8,3 7,3 6,3 5,3 4,3 3,3 2,3 1,3 0,3 0,4 0,5 0,6 0,7 0,8 0,9 
		0,10 0,11 0,12 0,13 1,13 2,13 3,13 	"/>
</g>
</svg>
