<?xml version="1.0" encoding="utf-8"?>
<!-- Generator: Adobe Illustrator 18.1.1, SVG Export Plug-In . SVG Version: 6.00 Build 0)  -->
<svg version="1.1" id="Layer_1" xmlns="http://www.w3.org/2000/svg" xmlns:xlink="http://www.w3.org/1999/xlink" x="0px" y="0px"
	 viewBox="0 0 20 40" enable-background="new 0 0 20 40" xml:space="preserve">
<g>
	<polygon fill="#F8B000" points="12.5,19 11.2,19 10,19 8.8,19 7.5,19 6.2,19 5,19 3.8,19 2.5,19 1.2,19 0,19 0,20 0,21 1.2,21 
		2.5,21 3.8,21 5,21 6.2,21 7.5,21 8.8,21 10,21 11.2,21 12.5,21 13.8,21 15,21 15,20 15,19 13.8,19 	"/>
	<polygon fill="#F8B000" points="15,29 14,29 14,30 13,30 12,30 12,31 11,31 10,31 10,32 9,32 8,32 8,33 7,33 6,33 6,34 5,34 4,34 
		4,35 3,35 2,35 2,36 2,37 3,37 4,37 4,36 5,36 6,36 6,35 7,35 8,35 8,34 9,34 10,34 10,33 11,33 12,33 12,32 13,32 14,32 14,31 
		15,31 16,31 16,30 16,29 	"/>
	<polygon fill="#F8B000" points="3,3 4,3 4,4 5,4 6,4 6,5 7,5 8,5 8,6 9,6 10,6 10,7 11,7 12,7 12,8 13,8 14,8 14,9 15,9 16,9 
		16,10 16,11 15,11 14,11 14,10 13,10 12,10 12,9 11,9 10,9 10,8 9,8 8,8 8,7 7,7 6,7 6,6 5,6 4,6 4,5 3,5 2,5 2,4 2,3 	"/>
</g>
</svg>
