<?xml version="1.0" encoding="utf-8"?>
<!-- Generator: Adobe Illustrator 18.1.1, SVG Export Plug-In . SVG Version: 6.00 Build 0)  -->
<svg version="1.1" id="Layer_1" xmlns="http://www.w3.org/2000/svg" xmlns:xlink="http://www.w3.org/1999/xlink" x="0px" y="0px"
	 viewBox="0 0 20 40" enable-background="new 0 0 20 40" xml:space="preserve">
<g>
	<polygon fill="#F8B000" points="7.9,19 9.2,19 10.4,19 11.7,19 12.9,19 14.2,19 15.4,19 16.7,19 17.9,19 19.2,19 20,19 20,20 
		20,21 19.2,21 17.9,21 16.7,21 15.4,21 14.2,21 12.9,21 11.7,21 10.4,21 9.2,21 7.9,21 6.7,21 5,21 5,20 5,19 6.7,19 	"/>
	<polygon fill="#F8B000" points="5.4,29 6,29 6,30 7.4,30 8,30 8,31 9.4,31 10,31 10,32 11.4,32 12,32 12,33 13.4,33 14,33 14,34 
		15.4,34 16,34 16,35 17.4,35 18,35 18,36 18,37 17.4,37 16,37 16,36 15.4,36 14,36 14,35 13.4,35 12,35 12,34 11.4,34 10,34 10,33 
		9.4,33 8,33 8,32 7.4,32 6,32 6,31 5.4,31 4,31 4,30 4,29 	"/>
	<polygon fill="#F8B000" points="17.4,3 16,3 16,4 15.4,4 14,4 14,5 13.4,5 12,5 12,6 11.4,6 10,6 10,7 9.4,7 8,7 8,8 7.4,8 6,8 
		6,9 5.4,9 4,9 4,10 4,11 5.4,11 6,11 6,10 7.4,10 8,10 8,9 9.4,9 10,9 10,8 11.4,8 12,8 12,7 13.4,7 14,7 14,6 15.4,6 16,6 16,5 
		17.4,5 18,5 18,4 18,3 	"/>
</g>
</svg>
