<?xml version="1.0" encoding="utf-8"?>
<!-- Generator: Adobe Illustrator 18.1.1, SVG Export Plug-In . SVG Version: 6.00 Build 0)  -->
<svg version="1.1" id="Layer_1" xmlns="http://www.w3.org/2000/svg" xmlns:xlink="http://www.w3.org/1999/xlink" x="0px" y="0px"
	 viewBox="0 0 110 40" enable-background="new 0 0 110 40" xml:space="preserve">
<g display="none">
	
		<image display="inline" overflow="visible" width="182" height="111" xlink:href="4E4FC347CAFAF643.png"  transform="matrix(1 0 0 1 -166 -9)">
	</image>
</g>
<polygon fill="#6E4739" points="102.5,32 15.5,32 4.5,9 8.5,6 92.5,6 100.7,13.4 "/>
<g display="none">
	<g display="inline">
		<image overflow="visible" width="170" height="100" xlink:href="4E4FC347CAFAF641.png"  transform="matrix(1 0 0 1 -162 39)">
		</image>
	</g>
	<g display="inline">
		<image overflow="visible" width="182" height="111" xlink:href="4E4FC347CAFAF647.png"  transform="matrix(1 0 0 1 -167 34)">
		</image>
	</g>
</g>
<path fill="#84D0F0" d="M109,34v-1v-1v-1h-1v-1v-1v-1h-1v-1v-1v-1v-1h-1v-1v-1v-1h-1v-1v-1v-1v-1h-1v-1v-1v-1h-1v-1v-1v-1h-1v-1V9
	h-1V8h-1V7h-1V6h-1V5h-1V4h-1V3h-1h-1V2h-1h-1V1h-1h-1V0h-1h-1h-1h-1h-1h-1h-1h-1h-1h-1h-1h-1h-1h-1h-1h-1h-1h-1h-1h-1h-1h-1h-1h-1
	h-1h-1h-1h-1h-1h-1h-1h-1h-1h-1h-1h-1h-1h-1h-1h-1h-1h-1h-1h-1h-1h-1h-1h-1h-1h-1h-1h-1h-1h-1h-1h-1h-1h-1h-1h-1h-1h-1h-1h-1h-1h-1
	h-1h-1h-1h-1h-1h-1h-1h-1h-1h-1h-1h-1h-1h-1H9H8H7H6H5H4H3H2H1H0v1v1v1v1h1v1v1v1v1h1v1v1v1h1v1v1v1v1h1v1v1v1v1h1v1v1v1h1v1v1v1v1
	h1v1v1h1v1v1h1v1h1v1h1v1h1v1h1v1h1v1h1h1v1h1v1h1h1h1v1h1h1h1h1h1h1h1h1h1h1h1h1h1h1h1h1h1h1h1h1h1h1h1h1h1h1h1h1h1h1h1h1h1h1h1h1
	h1h1h1h1h1h1h1h1h1h1h1h1h1h1h1h1h1h1h1h1h1h1h1h1h1h1h1h1h1h1h1h1h1h1h1h1h1h1h1h1h1h1h1h1h1h1h1h1h1h1h1h1h1h1v-1v-1v-1v-1h-1V34z
	 M85,7h1h1h1v1h1h1v1h1h1v1h1v1h1v1h1v1v1h1v1h1v1v1v1v1h1v1v1v1h1v1v1v1v1h1v1v1v1v1h1v1v1h-1h-1h-1h-1h-1h-1h-1h-1h-1h-1h-1h-1h-1
	h-1h-1h-1h-1h-1h-1h-1h-1h-1h-1h-1h-1h-1h-1h-1h-1h-1h-1h-1h-1h-1h-1h-1h-1h-1h-1h-1h-1h-1h-1h-1h-1h-1h-1h-1h-1h-1h-1h-1h-1h-1h-1
	h-1h-1h-1h-1h-1h-1h-1h-1h-1h-1h-1h-1h-1h-1h-1h-1h-1h-1h-1h-1h-1h-1h-1h-1v-1h-1h-1v-1h-1h-1v-1h-1v-1h-1v-1h-1v-1h-1v-1v-1h-1v-1
	v-1v-1h-1v-1v-1v-1v-1h-1v-1v-1v-1v-1h-1v-1v-1v-1H9V9V8V7V6h1h1h1h1h1h1h1h1h1h1h1h1h1h1h1h1h1h1h1h1h1h1h1h1h1h1h1h1h1h1h1h1h1h1
	h1h1h1h1h1h1h1h1h1h1h1h1h1h1h1h1h1h1h1h1h1h1h1h1h1h1h1h1h1h1h1h1h1h1h1h1h1h1h1h1h1v1H85z"/>
<g>
	<polygon fill="#FFFFFF" points="82,17 81,17 80,17 79,17 78,17 77,17 77,18 77,19 78,19 79,19 80,19 81,19 81,20 81,21 80,21 
		79,21 78,21 77,21 76,21 75,21 75,22 75,23 76,23 77,23 78,23 79,23 80,23 81,23 81,24 81,25 80,25 79,25 78,25 77,25 76,25 75,25 
		75,26 75,27 76,27 77,27 78,27 79,27 80,27 81,27 82,27 83,27 83,26 83,25 83,24 83,23 83,22 83,21 83,20 83,19 83,18 83,17 	"/>
	<polygon fill="#FFFFFF" points="75,23 74,23 73,23 73,24 73,25 74,25 75,25 75,24 	"/>
	<polygon fill="#FFFFFF" points="69,11 69,12 69,13 69,14 69,15 69,16 69,17 68,17 67,17 66,17 65,17 64,17 63,17 63,18 63,19 
		64,19 65,19 66,19 67,19 68,19 69,19 69,20 69,21 69,22 69,23 69,24 69,25 68,25 67,25 66,25 65,25 64,25 63,25 63,26 63,27 64,27 
		65,27 66,27 67,27 68,27 69,27 70,27 71,27 71,26 71,25 71,24 71,23 71,22 71,21 71,20 71,19 71,18 71,17 71,16 71,15 71,14 71,13 
		71,12 71,11 70,11 	"/>
	<polygon fill="#FFFFFF" points="63,23 63,22 63,21 63,20 63,19 62,19 61,19 61,20 61,21 61,22 61,23 61,24 61,25 62,25 63,25 
		63,24 	"/>
	<polygon fill="#FFFFFF" points="57,19 57,20 57,21 57,22 57,23 57,24 57,25 57,26 57,27 58,27 59,27 59,26 59,25 59,24 59,23 
		59,22 59,21 59,20 59,19 58,19 	"/>
	<polygon fill="#FFFFFF" points="57,17 56,17 55,17 54,17 53,17 52,17 51,17 50,17 49,17 49,18 49,19 49,20 49,21 49,22 49,23 
		49,24 49,25 49,26 49,27 50,27 51,27 51,26 51,25 51,24 51,23 51,22 51,21 51,20 51,19 52,19 53,19 54,19 55,19 56,19 57,19 57,18 
			"/>
	<polygon fill="#FFFFFF" points="45,17 45,18 45,19 45,20 45,21 45,22 45,23 45,24 45,25 44,25 43,25 42,25 41,25 40,25 39,25 
		39,26 39,27 40,27 41,27 42,27 43,27 44,27 45,27 46,27 47,27 47,26 47,25 47,24 47,23 47,22 47,21 47,20 47,19 47,18 47,17 46,17 
			"/>
	<polygon fill="#FFFFFF" points="39,23 39,22 39,21 39,20 39,19 39,18 39,17 38,17 37,17 37,18 37,19 37,20 37,21 37,22 37,23 
		37,24 37,25 38,25 39,25 39,24 	"/>
	<polygon fill="#FFFFFF" points="37,12 37,11 36,11 35,11 34,11 33,11 32,11 31,11 31,12 31,13 32,13 33,13 34,13 35,13 36,13 
		37,13 	"/>
	<polygon fill="#FFFFFF" points="29,13 29,14 29,15 29,16 29,17 28,17 27,17 26,17 26,18 26,19 27,19 28,19 29,19 29,20 29,21 
		29,22 29,23 29,24 29,25 29,26 29,27 30,27 31,27 31,26 31,25 31,24 31,23 31,22 31,21 31,20 31,19 32,19 33,19 34,19 35,19 35,18 
		35,17 34,17 33,17 32,17 31,17 31,16 31,15 31,14 31,13 30,13 	"/>
</g>
</svg>
