<?xml version="1.0" encoding="utf-8"?>
<!-- Generator: Adobe Illustrator 18.1.1, SVG Export Plug-In . SVG Version: 6.00 Build 0)  -->
<svg version="1.1" id="Layer_1" xmlns="http://www.w3.org/2000/svg" xmlns:xlink="http://www.w3.org/1999/xlink" x="0px" y="0px"
	 viewBox="0 0 16 16" enable-background="new 0 0 16 16" xml:space="preserve">
<g>
	<path d="M10,15h1h1v-1h1v-1h1v-1v-1h1v-1V9V8V7V6h-1V5V4h-1V3V2V1V0h-1h-1h-1H9H8L7,0L6,0L5,0L4,0L3,0v1v1v1v1H2v1v1H1v1v1v1v1v1h1
		v1v1h1v1h1v1h1h1v1h1h1h1h1V15z M9,14v-1h1v1H9z M13,7h1v1v1h-1v1h-1h-1h-1V9H9V8V7h1V6h1h1h1V7z M2,8V7h1V6h1h1h1v1h1v1v1H6v1H5H4
		H3V9H2V8z M6,13h1v1H6V13z"/>
	<rect x="4" y="8" width="1" height="1"/>
	<rect x="11" y="8" width="1" height="1"/>
</g>
</svg>
