<?xml version="1.0" encoding="utf-8"?>
<!-- Generator: Adobe Illustrator 18.1.1, SVG Export Plug-In . SVG Version: 6.00 Build 0)  -->
<svg version="1.1" id="Layer_1" xmlns="http://www.w3.org/2000/svg" xmlns:xlink="http://www.w3.org/1999/xlink" x="0px" y="0px"
	 viewBox="0 0 16 16" enable-background="new 0 0 16 16" xml:space="preserve">
<g>
	<path fill="#104257" d="M6,1H5H4v1H3v1H2v1v1H1v1v1v1v1v1h1v1v1h1v1v1v1v1h1h1h1h1h1h1h1h1h1h1v-1v-1v-1v-1h1v-1v-1h1V9V8V7V6V5h-1
		V4V3h-1V2h-1V1h-1h-1V0L9,0L8,0H7H6V1z M7,2v1H6V2H7z M3,9H2V8V7h1V6h1h1h1v1h1v1v1H6v1H5H4H3V9z M14,8v1h-1v1h-1h-1h-1V9H9V8V7h1
		V6h1h1h1v1h1V8z M10,3H9V2h1V3z"/>
	<rect x="11" y="7" fill="#104257" width="1" height="1"/>
	<rect x="4" y="7" fill="#104257" width="1" height="1"/>
</g>
</svg>
