<?xml version="1.0" encoding="utf-8"?>
<!-- Generator: Adobe Illustrator 18.1.1, SVG Export Plug-In . SVG Version: 6.00 Build 0)  -->
<svg version="1.1" id="Layer_1" xmlns="http://www.w3.org/2000/svg" xmlns:xlink="http://www.w3.org/1999/xlink" x="0px" y="0px"
	 viewBox="0 0 16 16" enable-background="new 0 0 16 16" xml:space="preserve">
<g>
	<path fill="#104257" d="M1,10v1v1h1v1h1v1h1h1v1h1h1h1h1h1v-1h1h1v-1h1h1h1h1v-1v-1v-1V9V8V7V6V5V4V3h-1h-1h-1h-1V2h-1h-1V1H9H8H7
		H6H5v1H4H3v1H2v1H1v1v1H0l0,1l0,1v1v1H1z M2,9h1v1H2V9z M9,13v1H8H7v-1H6v-1v-1v-1h1V9h1h1v1h1v1v1v1H9z M8,2h1v1h1v1v1v1H9v1H8H7
		V6H6V5V4V3h1V2H8z M3,6v1H2V6H3z"/>
	<rect x="7" y="4" fill="#104257" width="1" height="1"/>
	<rect x="7" y="11" fill="#104257" width="1" height="1"/>
</g>
</svg>
