<?xml version="1.0" encoding="utf-8"?>
<!-- Generator: Adobe Illustrator 18.1.1, SVG Export Plug-In . SVG Version: 6.00 Build 0)  -->
<svg version="1.1" id="Layer_1" xmlns="http://www.w3.org/2000/svg" xmlns:xlink="http://www.w3.org/1999/xlink" x="0px" y="0px"
	 viewBox="0 0 16 16" enable-background="new 0 0 16 16" xml:space="preserve">
<path fill="#F8B000" d="M15,8V7h-1V6V5V4V3h-1h-1v1h-1V3h-1V2H9V1H8H7v1H6v1H5v1H4v1H3v1H2v1H1v1H0v1h1h1v1v1v1v1v1v1v1h1h1v-1v-1
	v-1v-1v-1v-1h1h1h1v1v1v1v1v1v1h1h1h1h1h1h1h1v-1v-1v-1v-1v-1v-1V9h1h1V8H15z M7,4h1h1v1v1H8H7V5V4z M13,11v1v1h-1h-1h-1H9H8v-1v-1
	v-1h1h1h1h1h1V11z"/>
</svg>
