<?xml version="1.0" encoding="utf-8"?>
<!-- Generator: Adobe Illustrator 18.1.1, SVG Export Plug-In . SVG Version: 6.00 Build 0)  -->
<svg version="1.1" id="Layer_1" xmlns="http://www.w3.org/2000/svg" xmlns:xlink="http://www.w3.org/1999/xlink" x="0px" y="0px"
	 viewBox="0 0 16 16" enable-background="new 0 0 16 16" xml:space="preserve">
<g>
	<g id="XMLID_9_">
		<g>
			<rect x="12" width="1" height="1"/>
			<rect x="11" width="1" height="1"/>
			<rect x="10" width="1" height="1"/>
			<rect x="9" width="1" height="1"/>
			<rect x="8" width="1" height="1"/>
			<rect x="7" width="1" height="1"/>
			<rect x="6" width="1" height="1"/>
			<rect x="5" width="1" height="1"/>
			<rect x="4" width="1" height="1"/>
			<rect x="3" width="1" height="1"/>
			<rect x="12" y="1" width="1" height="1"/>
			<rect x="11" y="1" width="1" height="1"/>
			<rect x="10" y="1" width="1" height="1"/>
			<rect x="9" y="1" width="1" height="1"/>
			<rect x="8" y="1" width="1" height="1"/>
			<rect x="7" y="1" width="1" height="1"/>
			<rect x="6" y="1" width="1" height="1"/>
			<rect x="5" y="1" width="1" height="1"/>
			<rect x="4" y="1" width="1" height="1"/>
			<rect x="12" y="2" width="1" height="1"/>
			<rect x="11" y="2" width="1" height="1"/>
			<rect x="10" y="2" width="1" height="1"/>
			<rect x="9" y="2" width="1" height="1"/>
			<rect x="8" y="2" width="1" height="1"/>
			<rect x="7" y="2" width="1" height="1"/>
			<rect x="6" y="2" width="1" height="1"/>
			<rect x="5" y="2" width="1" height="1"/>
			<rect x="4" y="2" width="1" height="1"/>
			<rect x="12" y="3" width="1" height="1"/>
			<rect x="11" y="3" width="1" height="1"/>
			<rect x="10" y="3" width="1" height="1"/>
			<rect x="9" y="3" width="1" height="1"/>
			<rect x="8" y="3" width="1" height="1"/>
			<rect x="7" y="3" width="1" height="1"/>
			<rect x="6" y="3" width="1" height="1"/>
			<rect x="5" y="3" width="1" height="1"/>
			<rect x="4" y="3" width="1" height="1"/>
			<rect x="12" y="4" width="1" height="1"/>
			<rect x="11" y="4" width="1" height="1"/>
			<rect x="10" y="4" width="1" height="1"/>
			<rect x="9" y="4" width="1" height="1"/>
			<rect x="8" y="4" width="1" height="1"/>
			<rect x="7" y="4" width="1" height="1"/>
			<rect x="6" y="4" width="1" height="1"/>
			<rect x="5" y="4" width="1" height="1"/>
			<rect x="11" y="5" width="1" height="1"/>
			<rect x="10" y="5" width="1" height="1"/>
			<rect x="9" y="5" width="1" height="1"/>
			<rect x="8" y="5" width="1" height="1"/>
			<rect x="7" y="5" width="1" height="1"/>
			<rect x="6" y="5" width="1" height="1"/>
			<rect x="5" y="5" width="1" height="1"/>
			<rect x="11" y="6" width="1" height="1"/>
			<rect x="10" y="6" width="1" height="1"/>
			<rect x="9" y="6" width="1" height="1"/>
			<rect x="8" y="6" width="1" height="1"/>
			<rect x="7" y="6" width="1" height="1"/>
			<rect x="6" y="6" width="1" height="1"/>
			<rect x="5" y="6" width="1" height="1"/>
			<rect x="10" y="7" width="1" height="1"/>
			<rect x="9" y="7" width="1" height="1"/>
			<rect x="8" y="7" width="1" height="1"/>
			<rect x="7" y="7" width="1" height="1"/>
			<rect x="6" y="7" width="1" height="1"/>
			<rect x="10" y="8" width="1" height="1"/>
			<rect x="9" y="8" width="1" height="1"/>
			<rect x="8" y="8" width="1" height="1"/>
			<rect x="7" y="8" width="1" height="1"/>
			<rect x="6" y="8" width="1" height="1"/>
			<rect x="9" y="9" width="1" height="1"/>
			<rect x="8" y="9" width="1" height="1"/>
			<rect x="7" y="9" width="1" height="1"/>
			<rect x="9" y="10" width="1" height="1"/>
			<rect x="8" y="10" width="1" height="1"/>
			<rect x="7" y="10" width="1" height="1"/>
			<rect x="9" y="11" width="1" height="1"/>
			<rect x="8" y="11" width="1" height="1"/>
			<rect x="7" y="11" width="1" height="1"/>
			<rect x="9" y="12" width="1" height="1"/>
			<rect x="8" y="12" width="1" height="1"/>
			<rect x="7" y="12" width="1" height="1"/>
			<rect x="8" y="13" width="1" height="1"/>
			<rect x="8" y="14" width="1" height="1"/>
		</g>
	</g>
</g>
</svg>
