<?xml version="1.0" encoding="utf-8"?>
<!-- Generator: Adobe Illustrator 18.1.1, SVG Export Plug-In . SVG Version: 6.00 Build 0)  -->
<svg version="1.1" id="Layer_1" xmlns="http://www.w3.org/2000/svg" xmlns:xlink="http://www.w3.org/1999/xlink" x="0px" y="0px"
	 viewBox="0 0 16 16" enable-background="new 0 0 16 16" xml:space="preserve">
<g>
	<polygon fill="#104257" points="14,7 13,7 13,6 12,6 11,6 10,6 9,6 9,5 8,5 7,5 7,4 6,4 5,4 5,3 4,3 3,3 2,3 1,3 0,3 0,4 0,5 0,6 
		0,7 0,8 0,9 0,10 0,11 0,12 0,13 1,13 1,12 2,12 3,12 4,12 4,11 5,11 6,11 7,11 7,10 8,10 9,10 9,9 10,9 11,9 12,9 13,9 13,8 14,8 
		15,8 15,7 	"/>
</g>
</svg>
