<?xml version="1.0" encoding="utf-8"?>
<!-- Generator: Adobe Illustrator 18.1.1, SVG Export Plug-In . SVG Version: 6.00 Build 0)  -->
<svg version="1.1" id="Layer_1" xmlns="http://www.w3.org/2000/svg" xmlns:xlink="http://www.w3.org/1999/xlink" x="0px" y="0px"
	 viewBox="0 0 16 16" enable-background="new 0 0 16 16" xml:space="preserve">
<g>
	<g id="XMLID_8_">
		<g>
			<rect y="7" width="1" height="1"/>
			<rect y="3" width="1" height="1"/>
			<rect y="4" width="1" height="1"/>
			<rect y="5" width="1" height="1"/>
			<rect y="6" width="1" height="1"/>
			<rect y="8" width="1" height="1"/>
			<rect y="9" width="1" height="1"/>
			<rect y="10" width="1" height="1"/>
			<rect y="11" width="1" height="1"/>
			<rect y="12" width="1" height="1"/>
			<rect x="1" y="3" width="1" height="1"/>
			<rect x="1" y="4" width="1" height="1"/>
			<rect x="1" y="5" width="1" height="1"/>
			<rect x="1" y="6" width="1" height="1"/>
			<rect x="1" y="7" width="1" height="1"/>
			<rect x="1" y="8" width="1" height="1"/>
			<rect x="1" y="9" width="1" height="1"/>
			<rect x="1" y="10" width="1" height="1"/>
			<rect x="1" y="11" width="1" height="1"/>
			<rect x="2" y="3" width="1" height="1"/>
			<rect x="2" y="4" width="1" height="1"/>
			<rect x="2" y="5" width="1" height="1"/>
			<rect x="2" y="6" width="1" height="1"/>
			<rect x="2" y="7" width="1" height="1"/>
			<rect x="2" y="8" width="1" height="1"/>
			<rect x="2" y="9" width="1" height="1"/>
			<rect x="2" y="10" width="1" height="1"/>
			<rect x="2" y="11" width="1" height="1"/>
			<rect x="3" y="3" width="1" height="1"/>
			<rect x="3" y="4" width="1" height="1"/>
			<rect x="3" y="5" width="1" height="1"/>
			<rect x="3" y="6" width="1" height="1"/>
			<rect x="3" y="7" width="1" height="1"/>
			<rect x="3" y="8" width="1" height="1"/>
			<rect x="3" y="9" width="1" height="1"/>
			<rect x="3" y="10" width="1" height="1"/>
			<rect x="3" y="11" width="1" height="1"/>
			<rect x="4" y="3" width="1" height="1"/>
			<rect x="4" y="4" width="1" height="1"/>
			<rect x="4" y="5" width="1" height="1"/>
			<rect x="4" y="6" width="1" height="1"/>
			<rect x="4" y="7" width="1" height="1"/>
			<rect x="4" y="8" width="1" height="1"/>
			<rect x="4" y="9" width="1" height="1"/>
			<rect x="4" y="10" width="1" height="1"/>
			<rect x="5" y="4" width="1" height="1"/>
			<rect x="5" y="5" width="1" height="1"/>
			<rect x="5" y="6" width="1" height="1"/>
			<rect x="5" y="7" width="1" height="1"/>
			<rect x="5" y="8" width="1" height="1"/>
			<rect x="5" y="9" width="1" height="1"/>
			<rect x="5" y="10" width="1" height="1"/>
			<rect x="6" y="4" width="1" height="1"/>
			<rect x="6" y="5" width="1" height="1"/>
			<rect x="6" y="6" width="1" height="1"/>
			<rect x="6" y="7" width="1" height="1"/>
			<rect x="6" y="8" width="1" height="1"/>
			<rect x="6" y="9" width="1" height="1"/>
			<rect x="6" y="10" width="1" height="1"/>
			<rect x="7" y="5" width="1" height="1"/>
			<rect x="7" y="6" width="1" height="1"/>
			<rect x="7" y="7" width="1" height="1"/>
			<rect x="7" y="8" width="1" height="1"/>
			<rect x="7" y="9" width="1" height="1"/>
			<rect x="8" y="5" width="1" height="1"/>
			<rect x="8" y="6" width="1" height="1"/>
			<rect x="8" y="7" width="1" height="1"/>
			<rect x="8" y="8" width="1" height="1"/>
			<rect x="8" y="9" width="1" height="1"/>
			<rect x="9" y="6" width="1" height="1"/>
			<rect x="9" y="7" width="1" height="1"/>
			<rect x="9" y="8" width="1" height="1"/>
			<rect x="10" y="6" width="1" height="1"/>
			<rect x="10" y="7" width="1" height="1"/>
			<rect x="10" y="8" width="1" height="1"/>
			<rect x="11" y="6" width="1" height="1"/>
			<rect x="11" y="7" width="1" height="1"/>
			<rect x="11" y="8" width="1" height="1"/>
			<rect x="12" y="6" width="1" height="1"/>
			<rect x="12" y="7" width="1" height="1"/>
			<rect x="12" y="8" width="1" height="1"/>
			<rect x="13" y="7" width="1" height="1"/>
			<rect x="14" y="7" width="1" height="1"/>
		</g>
	</g>
</g>
</svg>
