<?xml version="1.0" encoding="utf-8"?>
<!-- Generator: Adobe Illustrator 18.1.1, SVG Export Plug-In . SVG Version: 6.00 Build 0)  -->
<svg version="1.1" id="Layer_1" xmlns="http://www.w3.org/2000/svg" xmlns:xlink="http://www.w3.org/1999/xlink" x="0px" y="0px"
	 viewBox="0 0 16 16" enable-background="new 0 0 16 16" xml:space="preserve">
<polygon fill="#104257" points="15,3 15,4 14,4 13,4 12,4 12,5 11,5 10,5 9,5 9,6 8,6 7,6 7,7 6,7 5,7 4,7 3,7 3,8 2,8 1,8 1,9 2,9 
	3,9 3,10 4,10 5,10 6,10 7,10 7,11 8,11 9,11 9,12 10,12 11,12 11,13 12,13 13,13 14,13 15,13 16,13 16,12 16,11 16,10 16,9 16,8 
	16,7 16,6 16,5 16,4 16,3 "/>
</svg>
